<svg id="artwork" xmlns="http://www.w3.org/2000/svg" viewBox="0 0 760 452.88"><defs><style>.cls-2,.cls-4,.cls-8{fill:none}.cls-2,.cls-4,.cls-8,.cls-9{stroke-linecap:round;stroke-linejoin:round}.cls-2,.cls-9{stroke:#5b5b5b;stroke-width:1.5px}.cls-4,.cls-8{stroke:#06c}.cls-11,.cls-12{fill:#151515}.cls-13{fill:#06c}.cls-14,.cls-9{fill:#fff}.cls-15{fill:#e8e8e8}.cls-16{fill:#d9e8f7}.cls-11,.cls-12{font-family:RedHatText,&quot;Red Hat Text&quot;,Overpass,&quot;Helvetica Neue&quot;,Arial,sans-serif;font-weight:500;font-size:11px}.cls-12{font-variation-settings:&apos;wght&apos; 500}.cls-8{stroke-dasharray:0 0 2.4 2.4}</style></defs><text transform="translate(717.48 435.89)" fill="#ececec" font-family="RedHatText,&quot;Red Hat Text&quot;,Overpass,&quot;Helvetica Neue&quot;,Arial,sans-serif" font-size="10"><tspan x="0" y="0">285_1022</tspan></text><path fill="none" d="M0 412.88h760v40H0z"/><path class="cls-15" d="M453 22v287H2V22h451m2-2H0v291h455V20z"/><path stroke="#fff" stroke-width="8" stroke-linecap="round" stroke-linejoin="round" fill="none" d="M157.5 302.47v12.06"/><path class="cls-4" d="M227.5 116.5v100M157.5 216.55v14.82"/><path class="cls-13" d="M152.51 229.91l4.99 8.64 4.99-8.64h-9.98z"/><path class="cls-4" d="M157.5 300.68v20.64"/><path class="cls-13" d="M152.51 302.14l4.99-8.64 4.99 8.64h-9.98zM152.51 319.86l4.99 8.64 4.99-8.64h-9.98z"/><path class="cls-4" d="M87.5 116.5v100h280v-100"/><text transform="translate(20 51.53)" fill="#151515" font-family="RedHatText,&quot;Red Hat Text&quot;,Overpass,&quot;Helvetica Neue&quot;,Arial,sans-serif" font-weight="700" font-size="14"><tspan x="0" y="0">Python application</tspan></text><path class="cls-15" d="M20 66.5h135v50H20z"/><path class="cls-14" d="M20 158.69h415V195H20z"/><text class="cls-11" transform="translate(68.63 88.55)"><tspan x="0" y="0">Project</tspan><tspan x="1.56" y="12">source</tspan></text><path class="cls-15" d="M160 66.5h135v50H160z"/><text class="cls-11" transform="translate(200.43 88.55)"><tspan x="0" y="0">Credential</tspan><tspan x="9.76" y="12">source</tspan></text><path class="cls-16" d="M90 241h135v50H90z"/><text class="cls-11" transform="translate(126.05 263.05)"><tspan x="0" y="0">Ansible SDK</tspan><tspan x="-.91" y="12">async library</tspan></text><path class="cls-16" d="M90 331h135v50H90z"/><text class="cls-11" transform="translate(143.49 353.05)"><tspan x="0" y="0">Local</tspan><tspan x="-29.22" y="12">Ansible executor</tspan></text><path class="cls-15" d="M90 386h135v50H90z"/><text class="cls-11" transform="translate(131.66 408.05)"><tspan x="0" y="0">Execution</tspan><tspan x="-6.97" y="12">environment</tspan></text><path class="cls-15" d="M300 66.5h135v50H300z"/><text class="cls-11" transform="translate(342.76 88.55)"><tspan x="0" y="0">Inventory</tspan><tspan x="7.43" y="12">source</tspan></text><text class="cls-12" transform="translate(68.63 187.64)"><tspan x="0" y="0">Project</tspan></text><path class="cls-9" d="M103.9 171H71.1v-20.01l5.27-5.27h27.53V171z"/><path class="cls-9" d="M71.1 150.99h5.27v-5.27l-5.27 5.27z"/><path class="cls-2" d="M91.38 152.08h-3.82v12.63h3.82M87.56 158.39h-3.82"/><circle class="cls-9" cx="78.72" cy="158.39" r="2.51"/><circle class="cls-9" cx="96.4" cy="164.71" r="2.51"/><circle class="cls-9" cx="96.4" cy="152.08" r="2.51"/><g><text class="cls-12" transform="translate(197.8 187.64)"><tspan x="0" y="0">Credentials</tspan></text><path class="cls-9" d="M224.98 154.17a8.198 8.198 0 012.52-16c4.53 0 8.2 3.67 8.2 8.2 0 3.16-1.79 5.9-4.42 7.27s0 4.71 0 4.71l-1.26 1.27 2.52 2.52-2.52 2.52v3.8l-2.52 2.52-2.52-2.52v-14.31z"/><circle cx="227.5" cy="141.95" r=".79" fill="#5b5b5b"/></g><g><text class="cls-12" transform="translate(342.76 187.64)"><tspan x="0" y="0">Inventory</tspan></text><path class="cls-2" d="M363.7 154.59h-7.58M378.88 154.59h-7.58M367.5 158.39v7.58M367.5 143.22v7.57"/><circle class="cls-9" cx="381.39" cy="154.59" r="2.51"/><circle class="cls-9" cx="381.39" cy="168.49" r="2.51"/><circle class="cls-9" cx="381.39" cy="140.7" r="2.51"/><circle class="cls-9" cx="367.5" cy="154.59" r="3.8"/><path class="cls-9" d="M370.19 157.28l9.43 9.43M364.82 151.9l-9.43-9.42M355.39 166.71l9.43-9.43M379.62 142.48l-9.43 9.43"/><circle class="cls-9" cx="367.5" cy="168.49" r="2.51"/><circle class="cls-9" cx="367.5" cy="140.7" r="2.51"/><circle class="cls-9" cx="353.61" cy="154.59" r="2.51"/><circle class="cls-9" cx="353.61" cy="168.49" r="2.51"/><circle class="cls-9" cx="353.61" cy="140.7" r="2.51"/></g><g><path class="cls-4" d="M622.5 306.05v1.5"/><path stroke-dasharray="0 0 3.09 3.09" stroke="#06c" stroke-linecap="round" stroke-linejoin="round" fill="none" d="M622.5 310.64v97.32"/><path class="cls-4" d="M622.5 409.5v1.5H621"/><path stroke="#06c" stroke-dasharray="0 0 2.98 2.98" stroke-linecap="round" stroke-linejoin="round" fill="none" d="M618.02 411H237.67"/><path class="cls-4" d="M236.18 411h-1.5"/><path class="cls-13" d="M236.14 406.01L227.5 411l8.64 4.99v-9.98z"/></g><g><path class="cls-4" d="M692.5 291v1.5"/><path class="cls-8" d="M692.5 294.9v8.4"/><path class="cls-4" d="M692.5 304.5v1.5H691"/><path stroke-dasharray="0 0 3.04 3.04" stroke="#06c" stroke-linecap="round" stroke-linejoin="round" fill="none" d="M687.96 306H555.52"/><path class="cls-4" d="M554 306h-1.5v-1.5"/><path class="cls-8" d="M552.5 302.1v-8.4"/><path class="cls-4" d="M552.5 292.5V291"/></g><g><path class="cls-14" d="M625.5 241.5h134v49h-134z"/><path class="cls-13" d="M759 242v48H626v-48h133m1-1H625v50h135v-50z"/></g><text class="cls-11" transform="translate(666.84 263.05)"><tspan x="0" y="0">Container</tspan><tspan x="5.59" y="12">registry</tspan></text><g><path class="cls-14" d="M485.5 241.5h134v49h-134z"/><path class="cls-13" d="M619 242v48H486v-48h133m1-1H485v50h135v-50z"/></g><text class="cls-11" transform="translate(521.92 263.05)"><tspan x="0" y="0">Automation</tspan><tspan x="19.92" y="12">Hub</tspan></text></svg>