<svg id="artwork" xmlns="http://www.w3.org/2000/svg" viewBox="0 0 760 328.09"><defs><style>.cls-2,.cls-3{fill:none}.cls-2,.cls-3,.cls-8{stroke-linecap:round;stroke-linejoin:round}.cls-2,.cls-8{stroke:#5b5b5b;stroke-width:1.5px}.cls-3{stroke:#06c}.cls-10,.cls-11{fill:#151515}.cls-12{fill:#06c}.cls-13,.cls-8{fill:#fff}.cls-14{fill:#e8e8e8}.cls-10,.cls-11{font-family:RedHatText,&quot;Red Hat Text&quot;,Overpass,&quot;Helvetica Neue&quot;,Arial,sans-serif;font-weight:500;font-size:11px}.cls-11{font-variation-settings:&apos;wght&apos; 500}</style></defs><path class="cls-14" d="M453 22v287H2V22h451m2-2H0v291h455V20z"/><path class="cls-3" d="M552.5 126.18v1.5"/><path stroke-dasharray="0 0 3.02 3.02" stroke="#06c" stroke-linecap="round" stroke-linejoin="round" fill="none" d="M552.5 130.7v107.29"/><path class="cls-3" d="M552.5 239.5v1.5"/><path class="cls-12" d="M547.51 127.64l4.99-8.64 4.99 8.64h-9.98z"/><path class="cls-3" d="M227.5 116.5v100M157.5 216.55v14.82"/><path class="cls-12" d="M152.51 229.91l4.99 8.64 4.99-8.64h-9.98z"/><path class="cls-3" d="M290.32 266h-1.5"/><path stroke-dasharray="0 0 2.97 2.97" stroke="#06c" stroke-linecap="round" stroke-linejoin="round" fill="none" d="M285.86 266h-57.88"/><path class="cls-3" d="M226.5 266H225"/><path class="cls-12" d="M288.86 261.01l8.64 4.99-8.64 4.99v-9.98z"/><path stroke="#fff" stroke-width="8" stroke-linecap="round" stroke-linejoin="round" fill="none" d="M470.27 266h-23.04"/><path class="cls-3" d="M475.32 266h-1.5"/><path stroke-dasharray="0 0 2.87 2.87" stroke="#06c" stroke-linecap="round" stroke-linejoin="round" fill="none" d="M470.95 266h-33.01"/><path class="cls-3" d="M436.5 266H435"/><path class="cls-12" d="M473.86 261.01l8.64 4.99-8.64 4.99v-9.98z"/><path class="cls-3" d="M87.5 116.5v100h280v-100"/><path class="cls-14" d="M485 66.5h135v50H485z"/><text class="cls-10" transform="translate(524.15 88.55)"><tspan x="0" y="0">Reporting &amp;</tspan><tspan x="8.08" y="12">analytics</tspan></text><text transform="translate(20 51.53)" fill="#151515" font-family="RedHatText,&quot;Red Hat Text&quot;,Overpass,&quot;Helvetica Neue&quot;,Arial,sans-serif" font-weight="700" font-size="14"><tspan x="0" y="0">Python application</tspan></text><path class="cls-14" d="M20 66.5h135v50H20z"/><path class="cls-13" d="M20 158.69h415V195H20z"/><text class="cls-10" transform="translate(68.63 88.55)"><tspan x="0" y="0">Project</tspan><tspan x="1.56" y="12">source</tspan></text><path class="cls-14" d="M160 66.5h135v50H160z"/><text class="cls-10" transform="translate(200.43 88.55)"><tspan x="0" y="0">Credential</tspan><tspan x="9.76" y="12">source</tspan></text><path fill="#d9e8f7" d="M90 241h135v50H90z"/><text class="cls-10" transform="translate(126.05 263.05)"><tspan x="0" y="0">Ansible SDK</tspan><tspan x="-.91" y="12">async library</tspan></text><path class="cls-14" d="M300 66.5h135v50H300z"/><text class="cls-10" transform="translate(342.76 88.55)"><tspan x="0" y="0">Inventory</tspan><tspan x="7.43" y="12">source</tspan></text><path class="cls-14" d="M300 241h135v50H300z"/><text class="cls-10" transform="translate(336.92 263.05)"><tspan x="0" y="0">Automation</tspan><tspan x="-3.35" y="12">data receiver</tspan></text><g><path class="cls-13" d="M485.5 241.5h134v49h-134z"/><path class="cls-12" d="M619 242v48H486v-48h133m1-1H485v50h135v-50z"/></g><text class="cls-10" transform="translate(525.89 263.05)"><tspan x="0" y="0">Persistent</tspan><tspan x="-6.19" y="12">data storage</tspan></text><g><text class="cls-11" transform="translate(68.63 187.64)"><tspan x="0" y="0">Project</tspan></text><path class="cls-8" d="M103.9 171H71.1v-20.01l5.27-5.27h27.53V171z"/><path class="cls-8" d="M71.1 150.99h5.27v-5.27l-5.27 5.27z"/><path class="cls-2" d="M91.38 152.08h-3.82v12.63h3.82M87.56 158.39h-3.82"/><circle class="cls-8" cx="78.72" cy="158.39" r="2.51"/><circle class="cls-8" cx="96.4" cy="164.71" r="2.51"/><circle class="cls-8" cx="96.4" cy="152.08" r="2.51"/></g><g><text class="cls-11" transform="translate(197.8 187.64)"><tspan x="0" y="0">Credentials</tspan></text><path class="cls-8" d="M224.98 154.17a8.198 8.198 0 012.52-16c4.53 0 8.2 3.67 8.2 8.2 0 3.16-1.79 5.9-4.42 7.27s0 4.71 0 4.71l-1.26 1.27 2.52 2.52-2.52 2.52v3.8l-2.52 2.52-2.52-2.52v-14.31z"/><circle cx="227.5" cy="141.95" r=".79" fill="#5b5b5b"/></g><g><text class="cls-11" transform="translate(342.76 187.64)"><tspan x="0" y="0">Inventory</tspan></text><path class="cls-2" d="M363.7 154.59h-7.58M378.88 154.59h-7.58M367.5 158.39v7.58M367.5 143.22v7.57"/><circle class="cls-8" cx="381.39" cy="154.59" r="2.51"/><circle class="cls-8" cx="381.39" cy="168.49" r="2.51"/><circle class="cls-8" cx="381.39" cy="140.7" r="2.51"/><circle class="cls-8" cx="367.5" cy="154.59" r="3.8"/><path class="cls-8" d="M370.19 157.28l9.43 9.43M364.82 151.9l-9.43-9.42M355.39 166.71l9.43-9.43M379.62 142.48l-9.43 9.43"/><circle class="cls-8" cx="367.5" cy="168.49" r="2.51"/><circle class="cls-8" cx="367.5" cy="140.7" r="2.51"/><circle class="cls-8" cx="353.61" cy="154.59" r="2.51"/><circle class="cls-8" cx="353.61" cy="168.49" r="2.51"/><circle class="cls-8" cx="353.61" cy="140.7" r="2.51"/></g><g><text transform="translate(717.48 311.11)" fill="#ececec" font-family="RedHatText,&quot;Red Hat Text&quot;,Overpass,&quot;Helvetica Neue&quot;,Arial,sans-serif" font-size="10"><tspan x="0" y="0">285_1022</tspan></text><path fill="none" d="M0 288.09h760v40H0z"/></g></svg>