<svg id="artwork" xmlns="http://www.w3.org/2000/svg" viewBox="0 0 760 462.88"><defs><style>.cls-2,.cls-3,.cls-8,.cls-9{fill:none}.cls-12,.cls-2,.cls-3,.cls-8,.cls-9{stroke-linecap:round;stroke-linejoin:round}.cls-12,.cls-2{stroke:#5b5b5b;stroke-width:1.5px}.cls-3,.cls-9{stroke:#06c}.cls-14,.cls-15{fill:#151515}.cls-16{fill:#06c}.cls-12,.cls-17{fill:#fff}.cls-18{fill:#e8e8e8}.cls-19{fill:#d9e8f7}.cls-14,.cls-15{font-family:RedHatText,&quot;Red Hat Text&quot;,Overpass,&quot;Helvetica Neue&quot;,Arial,sans-serif;font-weight:500;font-size:11px}.cls-15{font-variation-settings:&apos;wght&apos; 500}.cls-8{stroke:#fff;stroke-width:8px}.cls-9{stroke-dasharray:0 0 2.4 2.4}</style></defs><path class="cls-18" d="M620.5 22v297h-366V22h366m2-2h-370v301h370V20z"/><path class="cls-8" d="M380 317.47v12.06"/><text transform="translate(717.48 445.89)" fill="#ececec" font-family="RedHatText,&quot;Red Hat Text&quot;,Overpass,&quot;Helvetica Neue&quot;,Arial,sans-serif" font-size="10"><tspan x="0" y="0">285_1022</tspan></text><path fill="none" d="M0 422.88h760v40H0z"/><path class="cls-3" d="M705 121.18v1.5"/><path stroke-dasharray="0 0 3.07 3.07" stroke="#06c" stroke-linecap="round" stroke-linejoin="round" fill="none" d="M705 125.74v127.23"/><path class="cls-3" d="M705 254.5v1.5"/><path class="cls-16" d="M700.01 122.64L705 114l4.99 8.64h-9.98z"/><path class="cls-3" d="M437.5 111.5v100M380 211.55v34.82"/><path class="cls-16" d="M375.01 244.91l4.99 8.64 4.99-8.64h-9.98z"/><path class="cls-3" d="M380 315.68v15.64"/><path class="cls-16" d="M375.01 317.14l4.99-8.64 4.99 8.64h-9.98zM375.01 329.86l4.99 8.64 4.99-8.64h-9.98z"/><path class="cls-3" d="M487.82 281h-1.5"/><path stroke-dasharray="0 0 2.93 2.93" stroke="#06c" stroke-linecap="round" stroke-linejoin="round" fill="none" d="M483.39 281h-45.42"/><path class="cls-3" d="M436.5 281H435"/><path class="cls-16" d="M486.36 276.01L495 281l-8.64 4.99v-9.98z"/><path class="cls-8" d="M635.27 281h-15.54"/><path class="cls-3" d="M640.32 281h-1.5"/><path stroke-dasharray="0 0 3.31 3.31" stroke="#06c" stroke-linecap="round" stroke-linejoin="round" fill="none" d="M635.51 281h-24.85"/><path class="cls-3" d="M609 281h-1.5"/><path class="cls-16" d="M638.86 276.01l8.64 4.99-8.64 4.99v-9.98z"/><path class="cls-3" d="M322.5 111.5v100h230v-100M112.5 321.05v1.5"/><path stroke-dasharray="0 0 2.94 2.94" stroke="#06c" stroke-linecap="round" stroke-linejoin="round" fill="none" d="M112.5 325.48v92.55"/><path class="cls-3" d="M112.5 419.5v1.5h1.5"/><path stroke-dasharray="0 0 2.98 2.98" stroke="#06c" stroke-linecap="round" stroke-linejoin="round" fill="none" d="M116.98 421h195.35"/><path class="cls-3" d="M313.82 421h1.5"/><path class="cls-16" d="M313.86 425.99l8.64-4.99-8.64-4.99v9.98z"/><path class="cls-3" d="M55 306v1.5"/><path class="cls-9" d="M55 309.9v8.4"/><path class="cls-3" d="M55 319.5v1.5h1.5"/><path stroke-dasharray="0 0 3.03 3.03" stroke="#06c" stroke-linecap="round" stroke-linejoin="round" fill="none" d="M59.53 321h107.46"/><path class="cls-3" d="M168.5 321h1.5v-1.5"/><path class="cls-9" d="M170 317.1v-8.4"/><path class="cls-3" d="M170 307.5V306"/><g><path class="cls-18" d="M650 61.5h110v50H650z"/><text class="cls-14" transform="translate(674.15 83.55)"><tspan x="0" y="0">Reporting &amp;</tspan><tspan x="8.08" y="12">analytics</tspan></text></g><text transform="translate(267.5 46.53)" fill="#151515" font-family="RedHatText,&quot;Red Hat Text&quot;,Overpass,&quot;Helvetica Neue&quot;,Arial,sans-serif" font-weight="700" font-size="14"><tspan x="0" y="0">Python application</tspan></text><path class="cls-18" d="M267.5 61.5h110v50h-110z"/><path class="cls-17" d="M267.5 153.69h340V190h-340z"/><text class="cls-14" transform="translate(303.63 83.55)"><tspan x="0" y="0">Project</tspan><tspan x="1.56" y="12">source</tspan></text><path class="cls-18" d="M382.5 61.5h110v50h-110z"/><text class="cls-14" transform="translate(410.43 83.55)"><tspan x="0" y="0">Credential</tspan><tspan x="9.76" y="12">source</tspan></text><g><path class="cls-19" d="M325 256h110v50H325z"/><text class="cls-14" transform="translate(348.55 278.05)"><tspan x="0" y="0">Ansible SDK</tspan><tspan x="-.91" y="12">async library</tspan></text></g><g><path class="cls-19" d="M325 341h110v50H325z"/><text class="cls-14" transform="translate(365.99 363.05)"><tspan x="0" y="0">Local</tspan><tspan x="-29.22" y="12">Ansible executor</tspan></text><path class="cls-18" d="M325 396h110v50H325z"/><text class="cls-14" transform="translate(354.16 418.05)"><tspan x="0" y="0">Execution</tspan><tspan x="-6.97" y="12">environment</tspan></text></g><g><path class="cls-17" d="M.5 256.5h109v49H.5z"/><path class="cls-16" d="M109 257v48H1v-48h108m1-1H0v50h110v-50z"/></g><text class="cls-14" transform="translate(29.34 278.05)"><tspan x="0" y="0">Container</tspan><tspan x="5.59" y="12">registry</tspan></text><g><path class="cls-17" d="M115.5 256.5h109v49h-109z"/><path class="cls-16" d="M224 257v48H116v-48h108m1-1H115v50h110v-50z"/></g><text class="cls-14" transform="translate(139.42 278.05)"><tspan x="0" y="0">Automation</tspan><tspan x="19.92" y="12">Hub</tspan></text><path class="cls-18" d="M497.5 61.5h110v50h-110z"/><text class="cls-14" transform="translate(527.76 83.55)"><tspan x="0" y="0">Inventory</tspan><tspan x="7.43" y="12">source</tspan></text><path class="cls-18" d="M497.5 256h110v50h-110z"/><text class="cls-14" transform="translate(521.92 278.05)"><tspan x="0" y="0">Automation</tspan><tspan x="-3.35" y="12">data receiver</tspan></text><g><path class="cls-17" d="M650.5 256.5h109v49h-109z"/><path class="cls-16" d="M759 257v48H651v-48h108m1-1H650v50h110v-50z"/></g><text class="cls-14" transform="translate(678.39 278.05)"><tspan x="0" y="0">Persistent</tspan><tspan x="-6.19" y="12">data storage</tspan></text><g><text class="cls-15" transform="translate(303.63 182.64)"><tspan x="0" y="0">Project</tspan></text><path class="cls-12" d="M338.9 166h-32.8v-20.01l5.26-5.27h27.54V166z"/><path class="cls-12" d="M306.1 145.99h5.26v-5.27l-5.26 5.27z"/><path class="cls-2" d="M326.38 147.08h-3.82v12.63h3.82M322.56 153.39h-3.82"/><circle class="cls-12" cx="313.72" cy="153.39" r="2.51"/><circle class="cls-12" cx="331.4" cy="159.71" r="2.51"/><circle class="cls-12" cx="331.4" cy="147.08" r="2.51"/></g><g><text class="cls-15" transform="translate(407.8 182.64)"><tspan x="0" y="0">Credentials</tspan></text><path class="cls-12" d="M434.98 149.17a8.198 8.198 0 012.52-16c4.53 0 8.2 3.67 8.2 8.2 0 3.16-1.79 5.9-4.42 7.27s0 4.71 0 4.71l-1.26 1.27 2.52 2.52-2.52 2.52v3.8l-2.52 2.52-2.52-2.52v-14.31z"/><circle cx="437.5" cy="136.95" r=".79" fill="#5b5b5b"/></g><g><text class="cls-15" transform="translate(527.76 182.64)"><tspan x="0" y="0">Inventory</tspan></text><path class="cls-2" d="M548.7 149.59h-7.58M563.88 149.59h-7.58M552.5 153.39v7.58M552.5 138.22v7.57"/><circle class="cls-12" cx="566.39" cy="149.59" r="2.51"/><circle class="cls-12" cx="566.39" cy="163.49" r="2.51"/><circle class="cls-12" cx="566.39" cy="135.7" r="2.51"/><circle class="cls-12" cx="552.5" cy="149.59" r="3.8"/><path class="cls-12" d="M555.19 152.28l9.43 9.43M549.82 146.9l-9.43-9.42M540.39 161.71l9.43-9.43M564.62 137.48l-9.43 9.43"/><circle class="cls-12" cx="552.5" cy="163.49" r="2.51"/><circle class="cls-12" cx="552.5" cy="135.7" r="2.51"/><circle class="cls-12" cx="538.61" cy="149.59" r="2.51"/><circle class="cls-12" cx="538.61" cy="163.49" r="2.51"/><circle class="cls-12" cx="538.61" cy="135.7" r="2.51"/></g></svg>